<svg width="349" height="345" xmlns="http://www.w3.org/2000/svg">

 <g>
  <title>Mineway</title>
  <path stroke-width="0" id="svg_1" d="m56.12802,228c-2,0 -55,1 -55,1c0,0 -1,-223 -1,-223c0,0 141,75 141,75c0,0 191,-81 191,-81c0,0 17,62 17,62c0,0 -200,74 -200,74c0,0 -86,-25 -86,-25c0,0 -5,117 -7,117z" stroke="#000" fill="#f3841e"/>
  <path transform="rotate(179.733 174.253 229.5)" stroke-width="0" id="svg_2" d="m55.75289,343c-2,0 -55,1 -55,1c0,0 -1,-223 -1,-223c0,0 141,75 141,75c0,0 191,-81 191,-81c0,0 17,62 17,62c0,0 -200,74 -200,74c0,0 -86,-25 -86,-25c0,0 -5,117 -7,117z" stroke="#000" fill="#000000"/>
 </g>
</svg>